# xmcd
#
# Track frame offsets:
#	150
#	13545
#	23321
#	30641
#	36363
#	53763
#	66339
#	82287
#	93108
#	102974
#	113959
#	129914
#	147586
#	159215
#	166309
#	183591
#	198630
#	215403
#
# Disc length: 3229 seconds
#
# Revision: 2
# Processed by: cddbd v1.5.2PL0 Copyright (c) Steve Scherf et al.
# Submitted via: audiograbber 1.83.01
#
DISCID=f20c9b12
DTITLE=Buschinsky - Is in The House
DYEAR=2010
DGENRE=
TTITLE0=Irrflug
TTITLE1=Das kleine braune Reh
TTITLE2=Zwischenspiel
TTITLE3=Beschwerde
TTITLE4=Jerremy
TTITLE5=Gedichte
TTITLE6=Cottenfields
TTITLE7=Auf der Alm
TTITLE8=Key to the Higway
TTITLE9=County Roads
TTITLE10=Walter
TTITLE11=Auf der Autobahn
TTITLE12=Unter meinem Apfelbaum
TTITLE13=Zwischenspiel
TTITLE14=Banks of Ohio
TTITLE15=Heute Nacht
TTITLE16=Miss Henry
TTITLE17=Walking talking
EXTD=Meix und Passat Band
EXTT0=\n
EXTT1=
EXTT2=
EXTT3=
EXTT4=
EXTT5=
EXTT6=
EXTT7=
EXTT8=
EXTT9=
EXTT10=
EXTT11=
EXTT12=
EXTT13=
EXTT14=
EXTT15=
EXTT16=
EXTT17=
PLAYORDER=
